<?xml version="1.0" encoding="UTF-8" standalone="no"?>
<svg
   version="1.0"
   width="1024.000000pt"
   height="1024.000000pt"
   viewBox="0 0 1024.000000 1024.000000"
   preserveAspectRatio="xMidYMid meet"
   id="svg2"
   sodipodi:docname="logo_quieto.svg"
   inkscape:version="1.4 (e7c3feb1, 2024-10-09)"
   xmlns:inkscape="http://www.inkscape.org/namespaces/inkscape"
   xmlns:sodipodi="http://sodipodi.sourceforge.net/DTD/sodipodi-0.dtd"
   xmlns:xlink="http://www.w3.org/1999/xlink"
   xmlns="http://www.w3.org/2000/svg"
   xmlns:svg="http://www.w3.org/2000/svg">
  <defs
     id="defs2">
    <linearGradient
       id="linearGradient2"
       inkscape:collect="always">
      <stop
         style="stop-color:#00ffff;stop-opacity:1;"
         offset="0"
         id="stop2" />
      <stop
         style="stop-color:#00ffff;stop-opacity:0;"
         offset="1"
         id="stop3" />
    </linearGradient>
    <linearGradient
       inkscape:collect="always"
       xlink:href="#linearGradient2"
       id="linearGradient3"
       x1="3309.2529"
       y1="2497.3647"
       x2="8146.9761"
       y2="8331.4463"
       gradientUnits="userSpaceOnUse" />
  </defs>
  <sodipodi:namedview
     id="namedview2"
     pagecolor="#ffffff"
     bordercolor="#cccccc"
     borderopacity="1"
     inkscape:showpageshadow="0"
     inkscape:pageopacity="1"
     inkscape:pagecheckerboard="0"
     inkscape:deskcolor="#d1d1d1"
     inkscape:document-units="pt"
     inkscape:zoom="0.31392932"
     inkscape:cx="47.781456"
     inkscape:cy="605.23178"
     inkscape:window-width="1472"
     inkscape:window-height="663"
     inkscape:window-x="0"
     inkscape:window-y="37"
     inkscape:window-maximized="0"
     inkscape:current-layer="g2" />
  <g
     transform="translate(0.000000,1024.000000) scale(0.100000,-0.100000)"
     fill="#000000"
     stroke="none"
     id="g2">
    <path
       d="M4760 8347 c-19 -6 -58 -34 -86 -62 -60 -59 -78 -113 -72 -207 5 -74 26 -123 75 -171 111 -112 261 -100 406 33 l58 53 147 -6 c167 -6 269 -28 363 -78 122 -65 185 -168 221 -364 19 -105 22 -155 22 -405 0 -387 -36 -690 -133 -1112 -34 -151 -41 -169 -68 -192 -17 -14 -41 -51 -53 -83 -150 -376 -380 -598 -706 -680 -106 -27 -362 -24 -469 5 -220 60 -413 200 -559 406 -62 86 -89 111 -131 122 -25 6 -38 28 -115 188 -283 585 -437 1064 -475 1472 -23 245 147 423 465 487 l65 13 55 -33 c106 -64 209 -79 290 -42 203 92 214 358 18 464 -105 57 -227 32 -337 -69 -41 -39 -55 -45 -134 -60 -382 -74 -620 -274 -681 -568 -71 -343 114 -1006 500 -1796 87 -178 104 -221 104 -260 0 -63 61 -159 185 -291 238 -254 543 -397 907 -427 l88 -7 5 -31 c9 -48 -12 -273 -34 -358 -42 -162 -97 -275 -264 -543 -163 -260 -230 -409 -268 -590 -20 -96 -15 -285 10 -389 88 -365 405 -677 831 -816 554 -181 1173 -71 1601 286 302 252 563 660 730 1142 77 223 140 512 155 706 l7 81 84 17 c212 41 397 185 493 383 95 197 93 417 -7 625 -39 82 -58 108 -137 185 -146 145 -292 205 -497 205 -127 0 -209 -18 -314 -70 -140 -68 -253 -180 -320 -316 -111 -225 -97 -496 35 -698 79 -120 220 -237 334 -277 21 -8 41 -20 44 -27 6 -18 -23 -252 -48 -373 -78 -382 -259 -798 -467 -1077 -229 -306 -523 -498 -876 -574 -133 -28 -386 -31 -523 -5 -368 68 -668 265 -795 522 -59 120 -72 188 -66 325 8 190 46 281 248 603 251 399 316 581 326 915 l6 182 26 6 c130 29 322 113 444 196 87 58 221 196 300 307 75 105 161 268 202 381 24 69 26 80 15 130 -10 50 -8 67 24 200 124 519 178 1002 156 1379 -23 383 -88 580 -239 731 -156 155 -357 220 -682 220 l-158 0 -48 30 c-100 64 -198 84 -283 57z m2775 -3012 c238 -62 391 -291 355 -529 -41 -275 -318 -460 -585 -391 -237 62 -389 286 -355 524 39 279 316 466 585 396z"
       id="path1"
       style="fill:url(#linearGradient3)" />
    <path
       d="M7342 5087 c-146 -53 -195 -239 -95 -357 49 -57 99 -80 173 -80 188 0 290 207 179 360 -54 75 -168 109 -257 77z"
       id="path2"
       style="fill:#00ffff" />
  </g>
</svg>
