<svg xmlns="http://www.w3.org/2000/svg" viewBox="0 0 453.54 453.54"><defs><style>.cls-1{fill:#36c;}.cls-2{fill:#000c18;}.cls-3{fill:#f2f8fc;}.cls-4{fill:#0cc;}.cls-5{fill:#9de32d;}</style></defs><g id="Capa_2" data-name="Capa 2"><g id="Capa_1-2" data-name="Capa 1"><circle class="cls-1" cx="226.77" cy="226.77" r="226.77"/><path class="cls-2" d="M81.4,240.53a143,143,0,0,1,15.44-65,140.88,140.88,0,0,1,23.47-33.44,2.47,2.47,0,0,0,.68-2.26,49.83,49.83,0,0,1,4.4-28.72c7-14.53,18.3-24.19,33.94-28.06,17.95-4.45,34-.23,47.88,12.07.69.61,1.32,1.28,2,1.93.33.34.62.46,1,.31s.31-.66.28-.95a51.49,51.49,0,0,1,101.2-17.55A50.33,50.33,0,0,1,305.12,119c-.57.9-.54,1.28.37,1.9Q346.13,148.5,362,195a146.56,146.56,0,0,1,7.34,48.44c-.87,31.71-10.77,60.27-30.26,85.34a142.14,142.14,0,0,1-71.31,49.35,139,139,0,0,1-29.44,5.76,134.14,134.14,0,0,1-13.88.61c-33.38-.48-63.29-10.91-89.35-31.85a142,142,0,0,1-46.28-66.33A138.48,138.48,0,0,1,82.35,257,147,147,0,0,1,81.4,240.53Z"/><path class="cls-3" d="M362,388.34a20,20,0,0,1-5.43,8,19.22,19.22,0,0,1-26.13-.45,45.08,45.08,0,0,1-5.3-6.79q-6.48-9.28-12.93-18.6c-1.46-2.11-1-4.53,1-5.72a3.84,3.84,0,0,1,5.31,1.41c2.47,3.59,4.9,7.2,7.36,10.8s5.07,7.47,7.65,11.17a12.55,12.55,0,0,0,8.86,5.77,11.68,11.68,0,0,0,12.45-15.43,22.17,22.17,0,0,0-3.05-5.41q-6.81-9.64-13.67-19.26c-.28-.39-.57-.78-.82-1.18a3.83,3.83,0,1,1,6.32-4.32c1.86,2.61,3.66,5.24,5.49,7.87q9.35,13.42,18.7,26.85a4.71,4.71,0,0,1,1,2.88,3.6,3.6,0,0,1-2,3.33,3.74,3.74,0,0,1-3.87-.21C362.66,388.9,362.39,388.66,362,388.34Z"/><path class="cls-3" d="M159.69,414.46a4.11,4.11,0,0,1-.68,0c-1.22-.28-1.83.26-2.21,1.4-.9,2.65-1.87,5.27-2.86,7.88a3.85,3.85,0,0,1-4.48,2.52,3.71,3.71,0,0,1-2.78-5c.9-2.72,1.84-5.44,2.85-8.13a1.67,1.67,0,0,0-.68-2.23,19.84,19.84,0,0,1-8.26-15.16,15.41,15.41,0,0,1,.92-6q2.51-7.11,5.05-14.21a3.75,3.75,0,0,1,4.91-2.58,3.83,3.83,0,0,1,2.28,5.16c-1.64,4.46-3.39,8.88-5,13.36a12,12,0,0,0,11.31,15.67A12.54,12.54,0,0,0,171,399.23c1.55-4.52,2.92-9.11,4.48-13.64a3.77,3.77,0,0,1,6.13-1.64,3.41,3.41,0,0,1,1.15,3.79c-1.69,5.16-3.16,10.41-5.32,15.38-3,6.88-8.65,10.31-16,11.2C160.92,414.39,160.32,414.41,159.69,414.46Z"/><path class="cls-3" d="M200.8,419.09q.21-11.79.43-23.6a25.19,25.19,0,0,1,.12-2.75,3.86,3.86,0,0,1,7.71.46c0,4.15-.14,8.31-.21,12.46-.09,5.16-.23,10.31-.24,15.46a11.74,11.74,0,1,0,23.47-.07,3.63,3.63,0,0,1,3.44-3.85,3.58,3.58,0,0,1,4.1,3.14,18.77,18.77,0,0,1-3.31,12c-4.36,6.47-10.61,9-18.21,8.17-9.14-1-15.25-6.86-17-15.82A22.42,22.42,0,0,1,200.8,419.09Z"/><path class="cls-3" d="M285.46,431.35a18.83,18.83,0,0,1-18-13c-2.87-9-5.48-18.17-8.19-27.27a3.83,3.83,0,0,1,1.08-4.37,3.77,3.77,0,0,1,4-.67,4.57,4.57,0,0,1,2.51,3.31c2.48,8.37,4.94,16.75,7.48,25.11,1.35,4.41,4,7.78,8.6,9a11,11,0,0,0,11.48-3.33c3.1-3.33,4.22-7.37,2.61-11.75a4,4,0,0,1,2.32-5.14,3.75,3.75,0,0,1,5,2.77C308.35,419.14,299.22,431.35,285.46,431.35Z"/><path class="cls-4" d="M262.34,142.83a54,54,0,0,0,11.92-1.56,50.85,50.85,0,0,0,26.85-16.84c.69-.82,1.08-1,2.05-.33,29.57,20.26,49,47.68,58,82.37a132.31,132.31,0,0,1,4.09,39.08c-1.34,32-12.13,60.49-32.8,85-20.85,24.73-47.27,40.4-79,47.08a132.59,132.59,0,0,1-32.28,2.79c-32.06-1.15-60.64-11.78-85.29-32.33s-40.33-46.5-47.31-77.76a133.45,133.45,0,0,1-3.2-30.92,138.64,138.64,0,0,1,30-85.45c1.87-2.39,3.89-4.66,5.86-7,.25-.3.45-.67.91-.82a51.3,51.3,0,0,0,19.51,28.49c9.81,7.21,20.91,10.33,33.3,9.93-1.95,1.51-3.72,2.79-5.39,4.17-17.67,14.48-28.9,32.91-32.57,55.46-4.81,29.56,3,55.69,23.3,77.77a86.83,86.83,0,0,0,52,27.66c26.7,4.07,50.87-2.3,71.94-19.29a88,88,0,0,0,31.5-51.12,91.08,91.08,0,0,0-24.47-83.91,88.36,88.36,0,0,0-19.6-14.9,1.94,1.94,0,0,1-1.2-2.46,44.1,44.1,0,0,0-7.68-34.44Z"/><path class="cls-5" d="M142.07,240a124.31,124.31,0,0,0,2.71,22.07,41.51,41.51,0,0,0,5.83,14.21c3.93,5.74,9.43,8.53,16.33,8.71a23,23,0,0,0,5.5-.18c4.23-.91,7.26-3.55,9.8-6.86,4.09-5.32,6.43-11.45,8.1-17.87a56.25,56.25,0,0,0,2-16.13,39.32,39.32,0,0,0-3-14,16,16,0,0,0-1.5-2.72c-2.33-3.44-6.17-3.85-9.24-1A14,14,0,0,0,174.7,233c-2.28,8.23-2.51,16.4,1,24.39a21.62,21.62,0,0,0,7.38,8.81,1.11,1.11,0,0,1,.42,1.66,38.4,38.4,0,0,1-4.8,8.12,12.43,12.43,0,0,1-11.35,5.1c-5.67-.4-10.28-2.39-13.49-7.21a32.39,32.39,0,0,1-3.52-7.19,76.22,76.22,0,0,1-3.57-17.93,192.12,192.12,0,0,1-.72-20.36,7,7,0,0,1,.57-2.79,87.42,87.42,0,0,1,36.73-41.44c.86-.51,1.15-.47,1.54.53,6.2,16,17.74,25.82,34.62,28.9,20.85,3.8,41.7-8.46,49.09-28.52a4,4,0,0,0,.16-.45c.18-.89.51-1,1.36-.53a89.15,89.15,0,0,1,15.79,11.65,87.21,87.21,0,0,1,21,29.73,7.17,7.17,0,0,1,.58,2.78,191.73,191.73,0,0,1-.71,20.48c-.8,7.77-2,15.47-5.56,22.54-2.6,5.13-6.45,8.71-12.38,9.51a29.43,29.43,0,0,1-5.62.29,10.36,10.36,0,0,1-6.57-3.14c-3.1-2.95-5.08-6.64-6.79-10.49-.32-.72.23-.92.61-1.21A23.16,23.16,0,0,0,277,259a27.8,27.8,0,0,0,3.39-13.44c.09-5.48-.47-10.85-2.93-15.87a11.3,11.3,0,0,0-2.84-3.67c-3-2.57-6.66-2.12-8.91,1.13a24,24,0,0,0-3.72,10c-2.3,14.4.84,27.67,8.61,39.91a20.31,20.31,0,0,0,3.91,4.37,14.11,14.11,0,0,0,9.88,3.63c4-.1,8-.43,11.59-2.43,5-2.76,7.95-7.16,10.08-12.25a67.45,67.45,0,0,0,4.3-17.63c.56-4.36.85-8.74,1-13.15,3.71,6.93,3,31.75-1.34,45.71A87.14,87.14,0,0,1,177.51,331.5C142.48,307.25,135,267.56,142.07,240Z"/><path class="cls-3" d="M214.19,92.25c0-23.86,16.67-43.8,39.12-47.7a47.5,47.5,0,0,1,19.61,92.9,49.25,49.25,0,0,1-13.19,1.33,2,2,0,0,1-1.5-.59,43.87,43.87,0,0,0-28.71-12.93,2.85,2.85,0,0,1-2-.93,51.05,51.05,0,0,1-9.11-13.92A46.37,46.37,0,0,1,214.19,92.25Z"/><path class="cls-3" d="M172.15,85.34A47.8,47.8,0,0,1,219,124.81c.21,1.21-.46,1.09-1.1,1.23-13.65,3-23.87,10.57-30.5,22.82a43.26,43.26,0,0,0-4.37,29.36c.16.82.07,1.08-.79,1.25-16,3.15-30.15-.54-42.22-11.43-9.82-8.86-14.91-20.12-15.46-33.39a47.6,47.6,0,0,1,38-48.33A53.26,53.26,0,0,1,172.15,85.34Z"/><path class="cls-3" d="M226.7,210.21a40.52,40.52,0,1,1,40.57-40.4A40.54,40.54,0,0,1,226.7,210.21Z"/><path class="cls-5" d="M268.19,262.83a50.2,50.2,0,0,1-2.09-8.12c-1.35-7.22-1.33-14.37,1.07-21.4a15.13,15.13,0,0,1,2.07-4.16,1.49,1.49,0,0,1,2.18-.43,5.8,5.8,0,0,1,2.24,2.44,23.25,23.25,0,0,1,2.52,9.16c.46,4.89.3,9.73-1.57,14.37A18.43,18.43,0,0,1,268.19,262.83Z"/><path class="cls-5" d="M185.37,262.86a17.59,17.59,0,0,1-6.9-9.31,32.37,32.37,0,0,1,.65-20.91,7.61,7.61,0,0,1,2.46-3.61c1.3-1,2-.9,2.88.43a21.19,21.19,0,0,1,2.92,7.67C189.34,245.85,187.93,254.32,185.37,262.86Z"/><path class="cls-3" d="M128,363.2a9.85,9.85,0,0,0-.19-1.31c-1.35-7.86-5.82-13.24-13.39-15.51S100,346,94.51,351.85c-2.23,2.4-4.3,4.95-6.42,7.45a1.24,1.24,0,0,1-1.71.44,3.83,3.83,0,0,0-4.53,1.17,3.44,3.44,0,0,0-.11,4.43,1.11,1.11,0,0,1-.12,1.64c-1.86,2.14-3.66,4.33-5.49,6.5a3.86,3.86,0,0,0-.74,4,3.59,3.59,0,0,0,3.08,2.35A3.77,3.77,0,0,0,82,378.44c1.85-2.15,3.73-4.27,5.56-6.44.45-.53.7-.65,1.3-.14q8.11,6.92,16.31,13.76c.68.57.58.89,0,1.48q-2.79,3.12-5.48,6.35A3.77,3.77,0,0,0,100,399a3.86,3.86,0,0,0,5.62-.72c1.75-2.08,3.51-4.14,5.23-6.24a1.43,1.43,0,0,1,1.83-.58,3.8,3.8,0,0,0,4.54-5.41,1.32,1.32,0,0,1,.22-1.71q3-3.57,6-7.16A17.53,17.53,0,0,0,128,365.11C128,364.47,128,363.83,128,363.2Zm-7.4,1.62a11.46,11.46,0,0,1-2.83,7.67c-2,2.29-4,4.67-6,7-.49.59-.77.61-1.36.1q-8.25-7-16.55-14c-.68-.57-.6-.87-.07-1.48,2.1-2.4,4.08-4.92,6.22-7.29a11.36,11.36,0,0,1,12-3.49c4.59,1.19,7.31,4.35,8.33,9A8.71,8.71,0,0,1,120.56,364.82Z"/><path class="cls-2" d="M226.72,254.93c1.37-6.74,4.92-11.32,11.15-13.49a16.56,16.56,0,0,1,21.91,14.95A11.56,11.56,0,0,1,258.4,262c-2.4,4.89-5.78,9.09-9.25,13.22-6.15,7.31-12.86,14.12-19.64,20.84a4,4,0,0,1-5.71.14c-9.1-9.15-18.24-18.27-25.69-28.89-.87-1.24-1.6-2.57-2.4-3.86-3.74-6.05-2.19-11.93,1.4-16.48,4.23-5.36,9.93-7.51,16.6-6,6.85,1.53,11.08,6,12.72,12.86C226.49,254.09,226.57,254.36,226.72,254.93Z"/><path class="cls-2" d="M225.86,85.69a12,12,0,0,1,23.81-1.38,13.53,13.53,0,0,1,.18,1.67,2.1,2.1,0,0,1-1.94,2.4c-1.19.05-2-.85-2.09-2.26a8.07,8.07,0,0,0-5.63-7.41A8,8,0,0,0,230,85.32c0,.36,0,.72-.09,1.07a2,2,0,1,1-4-.22Z"/><path class="cls-2" d="M271.69,74.47a12,12,0,0,1,11.93,11.61,2,2,0,0,1-1.95,2.38c-1.2,0-2-.74-2.05-2.12a8.07,8.07,0,0,0-8-7.87c-4.31,0-7.63,3.3-8,7.91a2,2,0,1,1-4-.1C259.45,79.91,265.05,74.42,271.69,74.47Z"/><path class="cls-2" d="M141.15,122.47A12,12,0,0,1,165,121.08a11.68,11.68,0,0,1,.18,1.67,2,2,0,1,1-4,.15,8,8,0,0,0-15.85-1.05c-.06.44-.07.88-.13,1.31a2,2,0,1,1-4-.21Z"/><path class="cls-2" d="M198.9,122.23a7.63,7.63,0,0,1,0,.83,2,2,0,0,1-2,2,2,2,0,0,1-2-2c-.32-3.89-2.48-6.79-5.76-7.72a8,8,0,0,0-10.24,7.32,3.62,3.62,0,0,1-.14,1.06,2,2,0,0,1-3.86-.73c-.24-5,3.53-10,8.6-11.51C191,109.31,198.1,114.33,198.9,122.23Z"/><path class="cls-2" d="M197.83,159.39a12,12,0,0,1,23.76-1.68,12.36,12.36,0,0,1,.22,2,2,2,0,1,1-4,.14,7.91,7.91,0,0,0-2.42-5.56,7.47,7.47,0,0,0-8.4-1.75,7.65,7.65,0,0,0-5.09,6.93c-.14,1.51-.57,2.24-1.64,2.45C198.72,162.23,197.79,161.25,197.83,159.39Z"/><path class="cls-2" d="M242.83,148c7.22,0,12.56,5.17,12.79,11.66a2.07,2.07,0,0,1-1.88,2.34c-1.28.08-2.07-.7-2.16-2.14A8.06,8.06,0,0,0,244,152a8,8,0,0,0-8.37,7.21c0,.28-.06.55-.1.83a1.89,1.89,0,0,1-2.1,1.92,2,2,0,0,1-1.88-2.2,12.05,12.05,0,0,1,3-7.65A11.39,11.39,0,0,1,242.83,148Z"/></g></g></svg>